<svg xmlns="http://www.w3.org/2000/svg" xmlns:xlink="http://www.w3.org/1999/xlink" width="1080" zoomAndPan="magnify" viewBox="0 0 810 809.999993" height="1080" preserveAspectRatio="xMidYMid meet" version="1.0"><defs><clipPath id="359d7018c6"><path d="M 178.578125 74.808594 L 618 74.808594 L 618 481.308594 L 178.578125 481.308594 Z M 178.578125 74.808594 " clip-rule="nonzero"/></clipPath><clipPath id="66994ca9ad"><path d="M 204 0 L 632 0 L 632 345 L 204 345 Z M 204 0 " clip-rule="nonzero"/></clipPath><clipPath id="b43d8d665b"><path d="M 191.507812 -131.820312 L 617.367188 -142.753906 L 631.207031 396.320312 L 205.347656 407.25 Z M 191.507812 -131.820312 " clip-rule="nonzero"/></clipPath><clipPath id="530e312e54"><path d="M 191.507812 -131.820312 L 833.296875 -148.296875 L 847.132812 390.777344 L 205.347656 407.25 Z M 191.507812 -131.820312 " clip-rule="nonzero"/></clipPath><clipPath id="9ce05b1f0f"><path d="M 223 0 L 632 0 L 632 370 L 223 370 Z M 223 0 " clip-rule="nonzero"/></clipPath><clipPath id="8cb419766b"><path d="M 191.507812 -131.820312 L 617.367188 -142.753906 L 631.207031 396.320312 L 205.347656 407.25 Z M 191.507812 -131.820312 " clip-rule="nonzero"/></clipPath><clipPath id="927a51a171"><path d="M 191.507812 -131.820312 L 833.296875 -148.296875 L 847.132812 390.777344 L 205.347656 407.25 Z M 191.507812 -131.820312 " clip-rule="nonzero"/></clipPath><clipPath id="e52e60a999"><path d="M 232 140 L 632 140 L 632 405 L 232 405 Z M 232 140 " clip-rule="nonzero"/></clipPath><clipPath id="07fabd6619"><path d="M 191.507812 -131.820312 L 617.367188 -142.753906 L 631.207031 396.320312 L 205.347656 407.25 Z M 191.507812 -131.820312 " clip-rule="nonzero"/></clipPath><clipPath id="4b4d02addc"><path d="M 191.507812 -131.820312 L 833.296875 -148.296875 L 847.132812 390.777344 L 205.347656 407.25 Z M 191.507812 -131.820312 " clip-rule="nonzero"/></clipPath></defs><rect x="-81" width="972" fill="#ffffff" y="-80.999999" height="971.999992" fill-opacity="1"/><rect x="-81" width="972" fill="#ffffff" y="-80.999999" height="971.999992" fill-opacity="1"/><g clip-path="url(#359d7018c6)"><path fill="#000000" d="M 294.09375 74.855469 C 230.476562 74.855469 178.847656 126.488281 178.847656 190.105469 C 178.847656 319.527344 309.394531 353.457031 398.355469 481.402344 C 482.460938 354.246094 617.863281 315.386719 617.863281 190.105469 C 617.863281 126.488281 566.234375 74.855469 502.617188 74.855469 C 456.472656 74.855469 416.753906 102.105469 398.355469 141.304688 C 379.953125 102.105469 340.238281 74.855469 294.09375 74.855469 Z M 294.09375 74.855469 " fill-opacity="1" fill-rule="nonzero"/></g><g clip-path="url(#66994ca9ad)"><g clip-path="url(#b43d8d665b)"><g clip-path="url(#530e312e54)"><path fill="#ff3a6c" d="M 640.996094 -142.578125 C 634.203125 -141.394531 629.601562 -134.917969 630.78125 -128.125 C 631.234375 -125.578125 632.417969 -123.324219 634.089844 -121.582031 L 589.539062 -78.144531 C 587.019531 -79.746094 583.9375 -80.445312 580.773438 -79.898438 C 573.980469 -78.714844 569.378906 -72.238281 570.558594 -65.445312 C 571.199219 -61.625 573.570312 -58.507812 576.675781 -56.6875 L 539.875 50.011719 C 538.433594 49.738281 536.960938 49.699219 535.417969 49.96875 C 531.980469 50.5625 529.125 52.496094 527.253906 55.179688 L 469.84375 26.570312 C 470.71875 24.457031 471.046875 22.082031 470.632812 19.613281 C 469.453125 12.820312 462.976562 8.21875 456.183594 9.402344 C 449.390625 10.582031 444.789062 17.058594 445.972656 23.851562 C 446.75 28.445312 449.980469 32.042969 454.089844 33.527344 L 416.957031 160.585938 C 415.710938 160.425781 414.394531 160.421875 413.082031 160.648438 C 406.289062 161.828125 401.6875 168.304688 402.871094 175.097656 C 403.191406 177.027344 403.972656 178.792969 405.058594 180.277344 L 363.105469 220.738281 C 360.3125 217.746094 356.125 216.148438 351.800781 216.878906 C 345.585938 217.933594 341.269531 223.429688 341.425781 229.550781 L 299.28125 236.796875 C 297.386719 230.992188 291.476562 227.269531 285.265625 228.359375 C 278.472656 229.539062 273.871094 236.015625 275.050781 242.808594 C 275.507812 245.433594 276.726562 247.6875 278.480469 249.464844 L 223.695312 321.699219 C 221.171875 320.09375 218.09375 319.398438 214.890625 319.945312 C 208.097656 321.128906 203.496094 327.605469 204.675781 334.398438 C 205.859375 341.191406 212.335938 345.792969 219.128906 344.609375 C 225.921875 343.425781 230.523438 336.953125 229.339844 330.160156 C 228.929688 327.804688 227.871094 325.738281 226.429688 324.070312 L 281.367188 251.679688 C 283.765625 253.011719 286.609375 253.558594 289.542969 253.058594 C 295.757812 252.007812 300.074219 246.507812 299.914062 240.386719 L 342.0625 233.140625 C 343.957031 238.945312 349.867188 242.671875 356.078125 241.582031 C 362.871094 240.398438 367.472656 233.921875 366.292969 227.132812 C 366.105469 225.933594 365.730469 224.820312 365.199219 223.785156 L 407.605469 182.921875 C 410.296875 184.988281 413.769531 185.984375 417.398438 185.386719 C 424.191406 184.203125 428.792969 177.726562 427.613281 170.933594 C 426.882812 166.691406 424.121094 163.347656 420.472656 161.660156 L 457.675781 34.289062 C 458.566406 34.34375 459.496094 34.28125 460.460938 34.140625 C 463.550781 33.59375 466.183594 31.976562 468.023438 29.71875 L 525.671875 58.4375 C 525.058594 60.316406 524.878906 62.375 525.203125 64.460938 C 526.386719 71.253906 532.863281 75.855469 539.65625 74.671875 C 546.449219 73.488281 551.050781 67.015625 549.867188 60.222656 C 549.183594 56.207031 546.617188 52.976562 543.28125 51.242188 L 580.007812 -55.300781 C 581.609375 -54.914062 583.277344 -54.878906 584.972656 -55.15625 C 591.765625 -56.339844 596.367188 -62.8125 595.1875 -69.605469 C 594.777344 -71.960938 593.714844 -74.027344 592.277344 -75.734375 L 636.941406 -119.289062 C 639.378906 -117.917969 642.261719 -117.332031 645.234375 -117.835938 C 652.027344 -119.019531 656.628906 -125.496094 655.449219 -132.289062 C 654.265625 -139.078125 647.789062 -143.683594 640.996094 -142.5 Z M 640.996094 -142.578125 " fill-opacity="1" fill-rule="nonzero"/></g></g></g><g clip-path="url(#9ce05b1f0f)"><g clip-path="url(#8cb419766b)"><g clip-path="url(#927a51a171)"><path fill="#f7bf02" d="M 748.84375 -20.246094 C 741.9375 -20.496094 736.144531 -15.113281 735.894531 -8.207031 C 735.804688 -5.609375 736.488281 -3.183594 737.78125 -1.160156 L 685.253906 32.167969 C 683.109375 30.089844 680.246094 28.769531 677.023438 28.65625 C 670.117188 28.410156 664.324219 33.792969 664.074219 40.699219 C 663.941406 44.578125 665.582031 48.101562 668.28125 50.515625 L 610.332031 147.367188 C 609 146.820312 607.515625 146.46875 606.003906 146.390625 C 602.511719 146.25 599.289062 147.570312 596.941406 149.804688 L 546.648438 110.003906 C 547.957031 108.109375 548.75 105.839844 548.84375 103.355469 C 549.09375 96.449219 543.710938 90.65625 536.804688 90.40625 C 529.894531 90.15625 524.101562 95.539062 523.855469 102.445312 C 523.664062 107.140625 526.097656 111.304688 529.839844 113.574219 L 467.359375 230.273438 C 466.183594 229.839844 464.898438 229.601562 463.578125 229.519531 C 456.671875 229.269531 450.878906 234.652344 450.628906 241.558594 C 450.5625 243.496094 450.960938 245.386719 451.703125 247.074219 L 402.292969 278.035156 C 400.1875 274.523438 396.40625 272.101562 392.019531 271.941406 C 385.734375 271.714844 380.34375 276.15625 379.257812 282.195312 L 336.535156 280.617188 C 335.875 274.546875 330.867188 269.675781 324.582031 269.449219 C 317.675781 269.199219 311.878906 274.582031 311.632812 281.488281 C 311.542969 284.125 312.269531 286.628906 313.601562 288.6875 L 245.113281 348.089844 C 242.964844 346.011719 240.101562 344.691406 236.882812 344.542969 C 229.972656 344.292969 224.179688 349.675781 223.933594 356.582031 C 223.683594 363.488281 229.066406 369.28125 235.972656 369.53125 C 242.878906 369.777344 248.671875 364.398438 248.921875 357.488281 C 249.015625 355.121094 248.414062 352.851562 247.316406 350.902344 L 315.957031 291.378906 C 318.019531 293.1875 320.722656 294.320312 323.671875 294.398438 C 329.957031 294.625 335.347656 290.183594 336.433594 284.148438 L 379.15625 285.726562 C 379.8125 291.792969 384.824219 296.667969 391.109375 296.894531 C 398.015625 297.140625 403.808594 291.761719 404.058594 284.851562 C 404.105469 283.648438 404 282.488281 403.699219 281.375 L 453.601562 250.085938 C 455.800781 252.667969 459.023438 254.367188 462.667969 254.507812 C 469.574219 254.753906 475.367188 249.375 475.617188 242.46875 C 475.777344 238.160156 473.742188 234.296875 470.539062 231.9375 L 533.167969 114.960938 C 534.066406 115.210938 534.960938 115.339844 535.933594 115.394531 C 539.074219 115.507812 541.957031 114.464844 544.234375 112.621094 L 594.726562 152.574219 C 593.722656 154.304688 593.113281 156.257812 593.054688 158.390625 C 592.804688 165.300781 598.1875 171.09375 605.09375 171.339844 C 612 171.589844 617.792969 166.207031 618.042969 159.300781 C 618.207031 155.226562 616.371094 151.550781 613.4375 149.148438 L 671.316406 52.453125 C 672.808594 53.148438 674.40625 53.574219 676.152344 53.605469 C 683.058594 53.855469 688.851562 48.472656 689.101562 41.566406 C 689.195312 39.160156 688.59375 36.929688 687.496094 34.980469 L 740.175781 1.566406 C 742.277344 3.414062 744.984375 4.585938 748.011719 4.699219 C 754.917969 4.949219 760.710938 -0.433594 760.957031 -7.339844 C 761.207031 -14.246094 755.824219 -20.039062 748.917969 -20.289062 Z M 748.84375 -20.246094 " fill-opacity="1" fill-rule="nonzero"/></g></g></g><g clip-path="url(#e52e60a999)"><g clip-path="url(#07fabd6619)"><g clip-path="url(#4b4d02addc)"><path fill="#8b00cb" d="M 830.4375 140.980469 C 823.761719 139.171875 816.882812 143.070312 815.078125 149.746094 C 814.40625 152.246094 814.507812 154.761719 815.265625 157.070312 L 756.519531 177.574219 C 754.902344 175.054688 752.410156 173.101562 749.328125 172.289062 C 742.652344 170.484375 735.773438 174.382812 733.96875 181.058594 C 732.941406 184.804688 733.734375 188.625 735.828125 191.554688 L 657.351562 272.652344 C 656.167969 271.792969 654.832031 271.128906 653.347656 270.738281 C 649.992188 269.816406 646.554688 270.371094 643.769531 271.992188 L 603.867188 221.808594 C 605.574219 220.25 606.878906 218.242188 607.515625 215.859375 C 609.320312 209.183594 605.421875 202.308594 598.746094 200.5 C 592.070312 198.695312 585.195312 202.59375 583.386719 209.269531 C 582.148438 213.796875 583.542969 218.375 586.6875 221.472656 L 499.261719 320.902344 C 498.199219 320.234375 497.023438 319.683594 495.734375 319.328125 C 489.058594 317.523438 482.179688 321.417969 480.375 328.09375 C 479.839844 329.96875 479.8125 331.910156 480.167969 333.683594 L 425.023438 352.582031 C 423.761719 348.699219 420.65625 345.484375 416.402344 344.3125 C 410.3125 342.648438 404.074219 345.792969 401.65625 351.398438 L 360.394531 340.128906 C 361.128906 334.0625 357.371094 328.191406 351.28125 326.523438 C 344.605469 324.71875 337.730469 328.617188 335.921875 335.292969 C 335.214844 337.867188 335.394531 340.421875 336.191406 342.765625 L 255.984375 385.027344 C 254.371094 382.507812 251.878906 380.558594 248.753906 379.707031 C 242.078125 377.902344 235.203125 381.800781 233.394531 388.476562 C 231.589844 395.148438 235.488281 402.027344 242.164062 403.832031 C 248.839844 405.640625 255.714844 401.742188 257.523438 395.066406 C 258.160156 392.761719 258.0625 390.4375 257.464844 388.285156 L 337.863281 345.941406 C 339.472656 348.148438 341.839844 349.871094 344.691406 350.652344 C 350.78125 352.316406 357.019531 349.171875 359.433594 343.566406 L 400.699219 354.835938 C 399.964844 360.902344 403.71875 366.773438 409.808594 368.441406 C 416.484375 370.246094 423.363281 366.347656 425.167969 359.671875 C 425.488281 358.5 425.613281 357.335938 425.621094 356.171875 L 481.34375 337.101562 C 482.894531 340.125 485.628906 342.496094 489.179688 343.453125 C 495.855469 345.257812 502.734375 341.359375 504.539062 334.683594 C 505.675781 330.546875 504.597656 326.308594 502 323.277344 L 589.609375 223.609375 C 590.398438 224.054688 591.257812 224.378906 592.195312 224.625 C 595.199219 225.441406 598.292969 225.089844 600.898438 223.820312 L 640.957031 274.234375 C 639.597656 275.667969 638.558594 277.476562 637.992188 279.507812 C 636.183594 286.183594 640.082031 293.058594 646.757812 294.867188 C 653.433594 296.671875 660.3125 292.773438 662.117188 286.097656 C 663.179688 282.15625 662.261719 278.148438 659.9375 275.183594 L 738.335938 194.203125 C 739.605469 195.21875 741.097656 195.996094 742.777344 196.457031 C 749.449219 198.261719 756.328125 194.363281 758.132812 187.6875 C 758.773438 185.382812 758.675781 183.058594 758.078125 180.90625 L 816.976562 160.359375 C 818.585938 162.644531 820.957031 164.40625 823.886719 165.183594 C 830.5625 166.988281 837.4375 163.089844 839.246094 156.414062 C 841.050781 149.738281 837.152344 142.863281 830.476562 141.054688 Z M 830.4375 140.980469 " fill-opacity="1" fill-rule="nonzero"/></g></g></g></svg>