<svg xmlns="http://www.w3.org/2000/svg" xmlns:xlink="http://www.w3.org/1999/xlink" width="1080" zoomAndPan="magnify" viewBox="0 0 810 809.999993" height="1080" preserveAspectRatio="xMidYMid meet" version="1.0"><defs><g/><clipPath id="08db1d7a88"><path d="M 178.578125 74.808594 L 618 74.808594 L 618 481.308594 L 178.578125 481.308594 Z M 178.578125 74.808594 " clip-rule="nonzero"/></clipPath><clipPath id="fd7f6e8eeb"><path d="M 204 0 L 632 0 L 632 345 L 204 345 Z M 204 0 " clip-rule="nonzero"/></clipPath><clipPath id="f16b2faf02"><path d="M 191.507812 -131.820312 L 617.367188 -142.753906 L 631.207031 396.320312 L 205.347656 407.25 Z M 191.507812 -131.820312 " clip-rule="nonzero"/></clipPath><clipPath id="4e9b8242b1"><path d="M 191.507812 -131.820312 L 833.296875 -148.296875 L 847.132812 390.777344 L 205.347656 407.25 Z M 191.507812 -131.820312 " clip-rule="nonzero"/></clipPath><clipPath id="04714c0cda"><path d="M 223 0 L 632 0 L 632 370 L 223 370 Z M 223 0 " clip-rule="nonzero"/></clipPath><clipPath id="ca1e0f0d34"><path d="M 191.507812 -131.820312 L 617.367188 -142.753906 L 631.207031 396.320312 L 205.347656 407.25 Z M 191.507812 -131.820312 " clip-rule="nonzero"/></clipPath><clipPath id="8b79e3bcf9"><path d="M 191.507812 -131.820312 L 833.296875 -148.296875 L 847.132812 390.777344 L 205.347656 407.25 Z M 191.507812 -131.820312 " clip-rule="nonzero"/></clipPath><clipPath id="29b3a44c1a"><path d="M 232 140 L 632 140 L 632 405 L 232 405 Z M 232 140 " clip-rule="nonzero"/></clipPath><clipPath id="6c84ccce87"><path d="M 191.507812 -131.820312 L 617.367188 -142.753906 L 631.207031 396.320312 L 205.347656 407.25 Z M 191.507812 -131.820312 " clip-rule="nonzero"/></clipPath><clipPath id="e3c87bcd66"><path d="M 191.507812 -131.820312 L 833.296875 -148.296875 L 847.132812 390.777344 L 205.347656 407.25 Z M 191.507812 -131.820312 " clip-rule="nonzero"/></clipPath></defs><rect x="-81" width="972" fill="#ffffff" y="-80.999999" height="971.999992" fill-opacity="1"/><rect x="-81" width="972" fill="#ffffff" y="-80.999999" height="971.999992" fill-opacity="1"/><g clip-path="url(#08db1d7a88)"><path fill="#000000" d="M 294.09375 74.855469 C 230.476562 74.855469 178.847656 126.488281 178.847656 190.105469 C 178.847656 319.527344 309.394531 353.457031 398.355469 481.402344 C 482.460938 354.246094 617.863281 315.386719 617.863281 190.105469 C 617.863281 126.488281 566.234375 74.855469 502.617188 74.855469 C 456.472656 74.855469 416.753906 102.105469 398.355469 141.304688 C 379.953125 102.105469 340.238281 74.855469 294.09375 74.855469 Z M 294.09375 74.855469 " fill-opacity="1" fill-rule="nonzero"/></g><g clip-path="url(#fd7f6e8eeb)"><g clip-path="url(#f16b2faf02)"><g clip-path="url(#4e9b8242b1)"><path fill="#ff3a6c" d="M 640.996094 -142.578125 C 634.203125 -141.394531 629.601562 -134.917969 630.78125 -128.125 C 631.234375 -125.578125 632.417969 -123.324219 634.089844 -121.582031 L 589.539062 -78.144531 C 587.019531 -79.746094 583.9375 -80.445312 580.773438 -79.898438 C 573.980469 -78.714844 569.378906 -72.238281 570.558594 -65.445312 C 571.199219 -61.625 573.570312 -58.507812 576.675781 -56.6875 L 539.875 50.011719 C 538.433594 49.738281 536.960938 49.699219 535.417969 49.96875 C 531.980469 50.5625 529.125 52.496094 527.253906 55.179688 L 469.84375 26.570312 C 470.71875 24.457031 471.046875 22.082031 470.632812 19.613281 C 469.453125 12.820312 462.976562 8.21875 456.183594 9.402344 C 449.390625 10.582031 444.789062 17.058594 445.972656 23.851562 C 446.75 28.445312 449.980469 32.042969 454.089844 33.527344 L 416.957031 160.585938 C 415.710938 160.425781 414.394531 160.421875 413.082031 160.648438 C 406.289062 161.828125 401.6875 168.304688 402.871094 175.097656 C 403.191406 177.027344 403.972656 178.792969 405.058594 180.277344 L 363.105469 220.738281 C 360.3125 217.746094 356.125 216.148438 351.800781 216.878906 C 345.585938 217.933594 341.269531 223.429688 341.425781 229.550781 L 299.28125 236.796875 C 297.386719 230.992188 291.476562 227.269531 285.265625 228.359375 C 278.472656 229.539062 273.871094 236.015625 275.050781 242.808594 C 275.507812 245.433594 276.726562 247.6875 278.480469 249.464844 L 223.695312 321.699219 C 221.171875 320.09375 218.09375 319.398438 214.890625 319.945312 C 208.097656 321.128906 203.496094 327.605469 204.675781 334.398438 C 205.859375 341.191406 212.335938 345.792969 219.128906 344.609375 C 225.921875 343.425781 230.523438 336.953125 229.339844 330.160156 C 228.929688 327.804688 227.871094 325.738281 226.429688 324.070312 L 281.367188 251.679688 C 283.765625 253.011719 286.609375 253.558594 289.542969 253.058594 C 295.757812 252.007812 300.074219 246.507812 299.914062 240.386719 L 342.0625 233.140625 C 343.957031 238.945312 349.867188 242.671875 356.078125 241.582031 C 362.871094 240.398438 367.472656 233.921875 366.292969 227.132812 C 366.105469 225.933594 365.730469 224.820312 365.199219 223.785156 L 407.605469 182.921875 C 410.296875 184.988281 413.769531 185.984375 417.398438 185.386719 C 424.191406 184.203125 428.792969 177.726562 427.613281 170.933594 C 426.882812 166.691406 424.121094 163.347656 420.472656 161.660156 L 457.675781 34.289062 C 458.566406 34.34375 459.496094 34.28125 460.460938 34.140625 C 463.550781 33.59375 466.183594 31.976562 468.023438 29.71875 L 525.671875 58.4375 C 525.058594 60.316406 524.878906 62.375 525.203125 64.460938 C 526.386719 71.253906 532.863281 75.855469 539.65625 74.671875 C 546.449219 73.488281 551.050781 67.015625 549.867188 60.222656 C 549.183594 56.207031 546.617188 52.976562 543.28125 51.242188 L 580.007812 -55.300781 C 581.609375 -54.914062 583.277344 -54.878906 584.972656 -55.15625 C 591.765625 -56.339844 596.367188 -62.8125 595.1875 -69.605469 C 594.777344 -71.960938 593.714844 -74.027344 592.277344 -75.734375 L 636.941406 -119.289062 C 639.378906 -117.917969 642.261719 -117.332031 645.234375 -117.835938 C 652.027344 -119.019531 656.628906 -125.496094 655.449219 -132.289062 C 654.265625 -139.078125 647.789062 -143.683594 640.996094 -142.5 Z M 640.996094 -142.578125 " fill-opacity="1" fill-rule="nonzero"/></g></g></g><g clip-path="url(#04714c0cda)"><g clip-path="url(#ca1e0f0d34)"><g clip-path="url(#8b79e3bcf9)"><path fill="#f7bf02" d="M 748.84375 -20.246094 C 741.9375 -20.496094 736.144531 -15.113281 735.894531 -8.207031 C 735.804688 -5.609375 736.488281 -3.183594 737.78125 -1.160156 L 685.253906 32.167969 C 683.109375 30.089844 680.246094 28.769531 677.023438 28.65625 C 670.117188 28.410156 664.324219 33.792969 664.074219 40.699219 C 663.941406 44.578125 665.582031 48.101562 668.28125 50.515625 L 610.332031 147.367188 C 609 146.820312 607.515625 146.46875 606.003906 146.390625 C 602.511719 146.25 599.289062 147.570312 596.941406 149.804688 L 546.648438 110.003906 C 547.957031 108.109375 548.75 105.839844 548.84375 103.355469 C 549.09375 96.449219 543.710938 90.65625 536.804688 90.40625 C 529.894531 90.15625 524.101562 95.539062 523.855469 102.445312 C 523.664062 107.140625 526.097656 111.304688 529.839844 113.574219 L 467.359375 230.273438 C 466.183594 229.839844 464.898438 229.601562 463.578125 229.519531 C 456.671875 229.269531 450.878906 234.652344 450.628906 241.558594 C 450.5625 243.496094 450.960938 245.386719 451.703125 247.074219 L 402.292969 278.035156 C 400.1875 274.523438 396.40625 272.101562 392.019531 271.941406 C 385.734375 271.714844 380.34375 276.15625 379.257812 282.195312 L 336.535156 280.617188 C 335.875 274.546875 330.867188 269.675781 324.582031 269.449219 C 317.675781 269.199219 311.878906 274.582031 311.632812 281.488281 C 311.542969 284.125 312.269531 286.628906 313.601562 288.6875 L 245.113281 348.089844 C 242.964844 346.011719 240.101562 344.691406 236.882812 344.542969 C 229.972656 344.292969 224.179688 349.675781 223.933594 356.582031 C 223.683594 363.488281 229.066406 369.28125 235.972656 369.53125 C 242.878906 369.777344 248.671875 364.398438 248.921875 357.488281 C 249.015625 355.121094 248.414062 352.851562 247.316406 350.902344 L 315.957031 291.378906 C 318.019531 293.1875 320.722656 294.320312 323.671875 294.398438 C 329.957031 294.625 335.347656 290.183594 336.433594 284.148438 L 379.15625 285.726562 C 379.8125 291.792969 384.824219 296.667969 391.109375 296.894531 C 398.015625 297.140625 403.808594 291.761719 404.058594 284.851562 C 404.105469 283.648438 404 282.488281 403.699219 281.375 L 453.601562 250.085938 C 455.800781 252.667969 459.023438 254.367188 462.667969 254.507812 C 469.574219 254.753906 475.367188 249.375 475.617188 242.46875 C 475.777344 238.160156 473.742188 234.296875 470.539062 231.9375 L 533.167969 114.960938 C 534.066406 115.210938 534.960938 115.339844 535.933594 115.394531 C 539.074219 115.507812 541.957031 114.464844 544.234375 112.621094 L 594.726562 152.574219 C 593.722656 154.304688 593.113281 156.257812 593.054688 158.390625 C 592.804688 165.300781 598.1875 171.09375 605.09375 171.339844 C 612 171.589844 617.792969 166.207031 618.042969 159.300781 C 618.207031 155.226562 616.371094 151.550781 613.4375 149.148438 L 671.316406 52.453125 C 672.808594 53.148438 674.40625 53.574219 676.152344 53.605469 C 683.058594 53.855469 688.851562 48.472656 689.101562 41.566406 C 689.195312 39.160156 688.59375 36.929688 687.496094 34.980469 L 740.175781 1.566406 C 742.277344 3.414062 744.984375 4.585938 748.011719 4.699219 C 754.917969 4.949219 760.710938 -0.433594 760.957031 -7.339844 C 761.207031 -14.246094 755.824219 -20.039062 748.917969 -20.289062 Z M 748.84375 -20.246094 " fill-opacity="1" fill-rule="nonzero"/></g></g></g><g clip-path="url(#29b3a44c1a)"><g clip-path="url(#6c84ccce87)"><g clip-path="url(#e3c87bcd66)"><path fill="#8b00cb" d="M 830.4375 140.980469 C 823.761719 139.171875 816.882812 143.070312 815.078125 149.746094 C 814.40625 152.246094 814.507812 154.761719 815.265625 157.070312 L 756.519531 177.574219 C 754.902344 175.054688 752.410156 173.101562 749.328125 172.289062 C 742.652344 170.484375 735.773438 174.382812 733.96875 181.058594 C 732.941406 184.804688 733.734375 188.625 735.828125 191.554688 L 657.351562 272.652344 C 656.167969 271.792969 654.832031 271.128906 653.347656 270.738281 C 649.992188 269.816406 646.554688 270.371094 643.769531 271.992188 L 603.867188 221.808594 C 605.574219 220.25 606.878906 218.242188 607.515625 215.859375 C 609.320312 209.183594 605.421875 202.308594 598.746094 200.5 C 592.070312 198.695312 585.195312 202.59375 583.386719 209.269531 C 582.148438 213.796875 583.542969 218.375 586.6875 221.472656 L 499.261719 320.902344 C 498.199219 320.234375 497.023438 319.683594 495.734375 319.328125 C 489.058594 317.523438 482.179688 321.417969 480.375 328.09375 C 479.839844 329.96875 479.8125 331.910156 480.167969 333.683594 L 425.023438 352.582031 C 423.761719 348.699219 420.65625 345.484375 416.402344 344.3125 C 410.3125 342.648438 404.074219 345.792969 401.65625 351.398438 L 360.394531 340.128906 C 361.128906 334.0625 357.371094 328.191406 351.28125 326.523438 C 344.605469 324.71875 337.730469 328.617188 335.921875 335.292969 C 335.214844 337.867188 335.394531 340.421875 336.191406 342.765625 L 255.984375 385.027344 C 254.371094 382.507812 251.878906 380.558594 248.753906 379.707031 C 242.078125 377.902344 235.203125 381.800781 233.394531 388.476562 C 231.589844 395.148438 235.488281 402.027344 242.164062 403.832031 C 248.839844 405.640625 255.714844 401.742188 257.523438 395.066406 C 258.160156 392.761719 258.0625 390.4375 257.464844 388.285156 L 337.863281 345.941406 C 339.472656 348.148438 341.839844 349.871094 344.691406 350.652344 C 350.78125 352.316406 357.019531 349.171875 359.433594 343.566406 L 400.699219 354.835938 C 399.964844 360.902344 403.71875 366.773438 409.808594 368.441406 C 416.484375 370.246094 423.363281 366.347656 425.167969 359.671875 C 425.488281 358.5 425.613281 357.335938 425.621094 356.171875 L 481.34375 337.101562 C 482.894531 340.125 485.628906 342.496094 489.179688 343.453125 C 495.855469 345.257812 502.734375 341.359375 504.539062 334.683594 C 505.675781 330.546875 504.597656 326.308594 502 323.277344 L 589.609375 223.609375 C 590.398438 224.054688 591.257812 224.378906 592.195312 224.625 C 595.199219 225.441406 598.292969 225.089844 600.898438 223.820312 L 640.957031 274.234375 C 639.597656 275.667969 638.558594 277.476562 637.992188 279.507812 C 636.183594 286.183594 640.082031 293.058594 646.757812 294.867188 C 653.433594 296.671875 660.3125 292.773438 662.117188 286.097656 C 663.179688 282.15625 662.261719 278.148438 659.9375 275.183594 L 738.335938 194.203125 C 739.605469 195.21875 741.097656 195.996094 742.777344 196.457031 C 749.449219 198.261719 756.328125 194.363281 758.132812 187.6875 C 758.773438 185.382812 758.675781 183.058594 758.078125 180.90625 L 816.976562 160.359375 C 818.585938 162.644531 820.957031 164.40625 823.886719 165.183594 C 830.5625 166.988281 837.4375 163.089844 839.246094 156.414062 C 841.050781 149.738281 837.152344 142.863281 830.476562 141.054688 Z M 830.4375 140.980469 " fill-opacity="1" fill-rule="nonzero"/></g></g></g><g fill="#8b00cb" fill-opacity="1"><g transform="translate(95.821117, 625.030756)"><g><path d="M 2.578125 0 L 2.578125 -1.171875 L 4.921875 -1.984375 C 6.484375 -2.453125 7.515625 -3.15625 8.015625 -4.09375 C 8.523438 -5.03125 8.78125 -6.28125 8.78125 -7.84375 L 8.78125 -69.1875 C 8.78125 -70.75 8.503906 -72 7.953125 -72.9375 C 7.410156 -73.875 6.359375 -74.617188 4.796875 -75.171875 L 2.578125 -76.09375 L 2.578125 -77.265625 L 31.03125 -77.265625 C 42.65625 -77.265625 51.0625 -75.140625 56.25 -70.890625 C 61.445312 -66.640625 64.046875 -61.039062 64.046875 -54.09375 C 64.046875 -49.644531 62.972656 -45.566406 60.828125 -41.859375 C 58.679688 -38.148438 55.144531 -35.203125 50.21875 -33.015625 C 45.300781 -30.828125 38.671875 -29.734375 30.328125 -29.734375 L 26.34375 -29.734375 L 26.34375 -8.203125 C 26.34375 -5.148438 27.863281 -3.15625 30.90625 -2.21875 L 34.421875 -1.171875 L 34.421875 0 Z M 26.34375 -32.078125 L 30.796875 -32.078125 C 34.617188 -32.078125 37.738281 -32.703125 40.15625 -33.953125 C 42.570312 -35.203125 44.363281 -37.382812 45.53125 -40.5 C 46.707031 -43.625 47.296875 -47.957031 47.296875 -53.5 C 47.296875 -59.125 46.648438 -63.492188 45.359375 -66.609375 C 44.078125 -69.734375 42.1875 -71.898438 39.6875 -73.109375 C 37.1875 -74.328125 34.066406 -74.9375 30.328125 -74.9375 L 26.34375 -74.9375 Z M 26.34375 -32.078125 "/></g></g></g><g fill="#8b00cb" fill-opacity="1"><g transform="translate(161.961968, 625.030756)"><g><path d="M 2.578125 0 L 2.578125 -1.171875 L 5.03125 -1.984375 C 6.59375 -2.535156 7.609375 -3.257812 8.078125 -4.15625 C 8.546875 -5.050781 8.78125 -6.320312 8.78125 -7.96875 L 8.78125 -69.1875 C 8.78125 -70.75 8.566406 -71.976562 8.140625 -72.875 C 7.710938 -73.78125 6.753906 -74.503906 5.265625 -75.046875 L 2.578125 -76.09375 L 2.578125 -77.265625 L 36.0625 -77.265625 C 45.269531 -77.265625 52.332031 -75.53125 57.25 -72.0625 C 62.164062 -68.59375 64.625 -63.773438 64.625 -57.609375 C 64.625 -54.171875 63.335938 -50.734375 60.765625 -47.296875 C 58.191406 -43.859375 54.132812 -41.207031 48.59375 -39.34375 L 64.859375 -7.03125 C 65.566406 -5.695312 66.367188 -4.617188 67.265625 -3.796875 C 68.160156 -2.984375 69.347656 -2.265625 70.828125 -1.640625 L 72.359375 -1.046875 L 72.359375 0 L 51.390625 0 L 34.0625 -36.875 L 26.109375 -36.875 L 26.109375 -7.96875 C 26.109375 -6.476562 26.34375 -5.265625 26.8125 -4.328125 C 27.28125 -3.390625 28.253906 -2.6875 29.734375 -2.21875 L 32.546875 -1.171875 L 32.546875 0 Z M 26.109375 -39.21875 L 31.734375 -39.21875 C 37.347656 -39.21875 41.40625 -40.71875 43.90625 -43.71875 C 46.40625 -46.726562 47.65625 -51.203125 47.65625 -57.140625 C 47.65625 -63.148438 46.484375 -67.617188 44.140625 -70.546875 C 41.796875 -73.472656 37.851562 -74.9375 32.3125 -74.9375 L 26.109375 -74.9375 Z M 26.109375 -39.21875 "/></g></g></g><g fill="#8b00cb" fill-opacity="1"><g transform="translate(235.477819, 625.030756)"><g><path d="M 39.21875 2.109375 C 34.457031 2.109375 29.867188 1.25 25.453125 -0.46875 C 21.046875 -2.1875 17.101562 -4.742188 13.625 -8.140625 C 10.15625 -11.535156 7.40625 -15.769531 5.375 -20.84375 C 3.351562 -25.914062 2.34375 -31.847656 2.34375 -38.640625 C 2.34375 -45.347656 3.351562 -51.238281 5.375 -56.3125 C 7.40625 -61.382812 10.175781 -65.617188 13.6875 -69.015625 C 17.207031 -72.410156 21.171875 -74.984375 25.578125 -76.734375 C 29.992188 -78.492188 34.539062 -79.375 39.21875 -79.375 C 43.976562 -79.375 48.5625 -78.535156 52.96875 -76.859375 C 57.382812 -75.179688 61.328125 -72.644531 64.796875 -69.25 C 68.273438 -65.851562 71.023438 -61.597656 73.046875 -56.484375 C 75.078125 -51.378906 76.09375 -45.429688 76.09375 -38.640625 C 76.09375 -32.003906 75.078125 -26.128906 73.046875 -21.015625 C 71.023438 -15.898438 68.273438 -11.644531 64.796875 -8.25 C 61.328125 -4.851562 57.382812 -2.273438 52.96875 -0.515625 C 48.5625 1.234375 43.976562 2.109375 39.21875 2.109375 Z M 39.21875 -0.34375 C 43.507812 -0.34375 46.984375 -1.492188 49.640625 -3.796875 C 52.296875 -6.109375 54.226562 -10.050781 55.4375 -15.625 C 56.644531 -21.207031 57.25 -28.878906 57.25 -38.640625 C 57.25 -48.472656 56.644531 -56.175781 55.4375 -61.75 C 54.226562 -67.332031 52.296875 -71.273438 49.640625 -73.578125 C 46.984375 -75.878906 43.507812 -77.03125 39.21875 -77.03125 C 35.007812 -77.03125 31.578125 -75.878906 28.921875 -73.578125 C 26.265625 -71.273438 24.332031 -67.332031 23.125 -61.75 C 21.914062 -56.175781 21.3125 -48.472656 21.3125 -38.640625 C 21.3125 -28.878906 21.914062 -21.207031 23.125 -15.625 C 24.332031 -10.050781 26.265625 -6.109375 28.921875 -3.796875 C 31.578125 -1.492188 35.007812 -0.34375 39.21875 -0.34375 Z M 39.21875 -0.34375 "/></g></g></g><g fill="#8b00cb" fill-opacity="1"><g transform="translate(313.910329, 625.030756)"><g><path d="M 12.765625 2.109375 C 8.941406 2.109375 5.992188 1.367188 3.921875 -0.109375 C 1.847656 -1.597656 0.8125 -3.59375 0.8125 -6.09375 C 0.8125 -8.269531 1.570312 -9.941406 3.09375 -11.109375 C 4.625 -12.285156 6.398438 -12.875 8.421875 -12.875 C 10.453125 -12.875 12.25 -12.425781 13.8125 -11.53125 C 15.375 -10.632812 16.816406 -9.09375 18.140625 -6.90625 L 20.25 -3.28125 C 20.644531 -2.726562 21.132812 -2.453125 21.71875 -2.453125 C 22.300781 -2.453125 22.710938 -2.804688 22.953125 -3.515625 C 23.421875 -5.078125 23.75 -7.359375 23.9375 -10.359375 C 24.132812 -13.367188 24.234375 -17.019531 24.234375 -21.3125 C 24.234375 -26.226562 24.113281 -32.546875 23.875 -40.265625 C 23.644531 -47.992188 23.414062 -57.519531 23.1875 -68.84375 C 23.1875 -72.195312 21.9375 -74.304688 19.4375 -75.171875 L 16.734375 -76.09375 L 16.734375 -77.265625 L 47.421875 -77.265625 L 47.421875 -76.09375 L 44.84375 -75.171875 C 43.4375 -74.617188 42.476562 -73.894531 41.96875 -73 C 41.46875 -72.101562 41.21875 -70.832031 41.21875 -69.1875 L 41.21875 -46.015625 C 41.21875 -38.359375 40.863281 -32.03125 40.15625 -27.03125 C 39.457031 -22.039062 38.328125 -17.710938 36.765625 -14.046875 C 34.804688 -8.816406 31.625 -4.816406 27.21875 -2.046875 C 22.8125 0.722656 17.992188 2.109375 12.765625 2.109375 Z M 12.765625 2.109375 "/></g></g></g><g fill="#8b00cb" fill-opacity="1"><g transform="translate(363.89642, 625.030756)"><g><path d="M 2.578125 0 L 2.578125 -1.171875 L 5.265625 -2.21875 C 6.597656 -2.769531 7.515625 -3.492188 8.015625 -4.390625 C 8.523438 -5.285156 8.78125 -6.515625 8.78125 -8.078125 L 8.78125 -69.1875 C 8.78125 -70.75 8.566406 -71.976562 8.140625 -72.875 C 7.710938 -73.78125 6.753906 -74.503906 5.265625 -75.046875 L 2.578125 -76.09375 L 2.578125 -77.265625 L 58.65625 -77.265625 L 59.359375 -59.234375 L 58.1875 -59.234375 L 53.15625 -70.25 C 52.445312 -71.65625 51.703125 -72.785156 50.921875 -73.640625 C 50.148438 -74.503906 48.984375 -74.9375 47.421875 -74.9375 L 26.34375 -74.9375 L 26.34375 -41.09375 L 38.875 -41.09375 C 40.4375 -41.09375 41.625 -41.5 42.4375 -42.3125 C 43.257812 -43.132812 43.984375 -44.25 44.609375 -45.65625 L 46.953125 -50.34375 L 48.125 -50.34375 L 48.125 -29.265625 L 46.953125 -29.265625 L 44.609375 -34.1875 C 43.898438 -35.59375 43.15625 -36.703125 42.375 -37.515625 C 41.601562 -38.335938 40.4375 -38.75 38.875 -38.75 L 26.34375 -38.75 L 26.34375 -2.34375 L 50 -2.34375 C 51.550781 -2.34375 52.753906 -2.75 53.609375 -3.5625 C 54.472656 -4.382812 55.179688 -5.539062 55.734375 -7.03125 L 60.53125 -18.03125 L 61.703125 -18.03125 L 61 0 Z M 2.578125 0 "/></g></g></g><g fill="#8b00cb" fill-opacity="1"><g transform="translate(428.86665, 625.030756)"><g><path d="M 42.84375 2.109375 C 35.28125 2.109375 28.429688 0.566406 22.296875 -2.515625 C 16.171875 -5.597656 11.3125 -10.179688 7.71875 -16.265625 C 4.132812 -22.359375 2.34375 -29.816406 2.34375 -38.640625 C 2.34375 -45.347656 3.429688 -51.238281 5.609375 -56.3125 C 7.796875 -61.382812 10.78125 -65.640625 14.5625 -69.078125 C 18.351562 -72.515625 22.726562 -75.085938 27.6875 -76.796875 C 32.644531 -78.515625 37.894531 -79.375 43.4375 -79.375 C 47.882812 -79.375 51.976562 -78.863281 55.71875 -77.84375 C 59.46875 -76.832031 62.984375 -75.429688 66.265625 -73.640625 L 66.734375 -59.234375 L 65.5625 -59.234375 L 59.703125 -68.609375 C 58.921875 -70.085938 58.0625 -71.429688 57.125 -72.640625 C 56.195312 -73.859375 55.03125 -74.773438 53.625 -75.390625 C 52.445312 -75.941406 51.289062 -76.351562 50.15625 -76.625 C 49.03125 -76.894531 47.609375 -77.03125 45.890625 -77.03125 C 41.367188 -77.03125 37.253906 -75.820312 33.546875 -73.40625 C 29.835938 -70.988281 26.867188 -66.988281 24.640625 -61.40625 C 22.421875 -55.820312 21.3125 -48.191406 21.3125 -38.515625 C 21.3125 -28.921875 22.363281 -21.332031 24.46875 -15.75 C 26.570312 -10.164062 29.4375 -6.179688 33.0625 -3.796875 C 36.695312 -1.421875 40.78125 -0.234375 45.3125 -0.234375 C 47.8125 -0.234375 49.800781 -0.40625 51.28125 -0.75 C 52.757812 -1.101562 54.242188 -1.632812 55.734375 -2.34375 C 57.210938 -2.96875 58.34375 -3.882812 59.125 -5.09375 C 59.90625 -6.300781 60.609375 -7.609375 61.234375 -9.015625 L 66.390625 -20.484375 L 67.546875 -20.484375 L 67.203125 -3.75 C 63.921875 -2.03125 60.25 -0.625 56.1875 0.46875 C 52.132812 1.5625 47.6875 2.109375 42.84375 2.109375 Z M 42.84375 2.109375 "/></g></g></g><g fill="#8b00cb" fill-opacity="1"><g transform="translate(499.455895, 625.030756)"><g><path d="M 18.265625 0 L 18.265625 -1.171875 L 23.0625 -2.34375 C 26.257812 -3.039062 27.859375 -4.992188 27.859375 -8.203125 L 27.859375 -74.9375 L 17.90625 -74.9375 C 15.019531 -74.9375 12.953125 -74.171875 11.703125 -72.640625 C 10.453125 -71.117188 9.128906 -69.035156 7.734375 -66.390625 L 3.515625 -58.1875 L 2.34375 -58.1875 L 2.921875 -77.265625 L 70.484375 -77.265625 L 70.953125 -58.1875 L 69.78125 -58.1875 L 65.5625 -66.390625 C 64.238281 -69.035156 62.953125 -71.117188 61.703125 -72.640625 C 60.453125 -74.171875 58.382812 -74.9375 55.5 -74.9375 L 45.546875 -74.9375 L 45.546875 -8.203125 C 45.546875 -4.992188 47.144531 -3.039062 50.34375 -2.34375 L 55.140625 -1.171875 L 55.140625 0 Z M 18.265625 0 "/></g></g></g><g fill="#8b00cb" fill-opacity="1"><g transform="translate(572.8547, 625.030756)"><g/></g></g><g fill="#8b00cb" fill-opacity="1"><g transform="translate(598.374517, 625.030756)"><g><path d="M 42.609375 2.109375 C 34.648438 2.109375 27.644531 0.453125 21.59375 -2.859375 C 15.550781 -6.179688 10.832031 -10.90625 7.4375 -17.03125 C 4.039062 -23.15625 2.34375 -30.394531 2.34375 -38.75 C 2.34375 -46.863281 4.019531 -53.960938 7.375 -60.046875 C 10.726562 -66.140625 15.585938 -70.882812 21.953125 -74.28125 C 28.316406 -77.675781 36.023438 -79.375 45.078125 -79.375 C 49.210938 -79.375 53.054688 -78.90625 56.609375 -77.96875 C 60.160156 -77.03125 63.535156 -75.664062 66.734375 -73.875 L 67.203125 -57.484375 L 66.03125 -57.484375 L 59.46875 -69.65625 C 58.457031 -71.613281 57.519531 -73.019531 56.65625 -73.875 C 55.800781 -74.738281 54.710938 -75.398438 53.390625 -75.859375 C 52.140625 -76.253906 50.988281 -76.546875 49.9375 -76.734375 C 48.882812 -76.929688 47.5 -77.03125 45.78125 -77.03125 C 40.9375 -77.03125 36.660156 -75.742188 32.953125 -73.171875 C 29.242188 -70.597656 26.375 -66.5 24.34375 -60.875 C 22.320312 -55.257812 21.3125 -47.882812 21.3125 -38.75 C 21.3125 -29.695312 22.265625 -22.320312 24.171875 -16.625 C 26.085938 -10.925781 28.800781 -6.769531 32.3125 -4.15625 C 35.820312 -1.539062 39.878906 -0.234375 44.484375 -0.234375 C 45.191406 -0.234375 45.875 -0.289062 46.53125 -0.40625 C 47.195312 -0.519531 47.84375 -0.65625 48.46875 -0.8125 C 49.945312 -1.050781 50.921875 -1.675781 51.390625 -2.6875 C 51.859375 -3.707031 52.09375 -4.921875 52.09375 -6.328125 L 52.09375 -29.5 C 52.09375 -32.539062 50.535156 -34.414062 47.421875 -35.125 L 42.03125 -36.53125 L 42.03125 -37.703125 L 75.046875 -37.703125 L 75.046875 -36.53125 L 73.40625 -36.0625 C 70.4375 -35.125 68.953125 -33.171875 68.953125 -30.203125 L 68.953125 -4.796875 C 64.898438 -2.535156 60.785156 -0.820312 56.609375 0.34375 C 52.429688 1.519531 47.765625 2.109375 42.609375 2.109375 Z M 42.609375 2.109375 "/></g></g></g><g fill="#8b00cb" fill-opacity="1"><g transform="translate(675.168158, 625.030756)"><g><path d="M 19.546875 -78.671875 C 22.441406 -78.671875 24.707031 -77.753906 26.34375 -75.921875 C 27.976562 -74.085938 28.796875 -71.6875 28.796875 -68.71875 C 28.796875 -66.300781 28.171875 -62.535156 26.921875 -57.421875 C 25.679688 -52.316406 24.394531 -46.679688 23.0625 -40.515625 L 20.609375 -28.21875 L 18.375 -28.21875 L 15.921875 -40.515625 C 14.671875 -46.523438 13.421875 -52.082031 12.171875 -57.1875 C 10.921875 -62.300781 10.296875 -66.144531 10.296875 -68.71875 C 10.296875 -71.6875 11.113281 -74.085938 12.75 -75.921875 C 14.394531 -77.753906 16.660156 -78.671875 19.546875 -78.671875 Z M 19.546875 1.75 C 16.660156 1.75 14.238281 0.773438 12.28125 -1.171875 C 10.332031 -3.117188 9.359375 -5.5 9.359375 -8.3125 C 9.359375 -11.039062 10.332031 -13.398438 12.28125 -15.390625 C 14.238281 -17.378906 16.660156 -18.375 19.546875 -18.375 C 22.359375 -18.375 24.738281 -17.378906 26.6875 -15.390625 C 28.644531 -13.398438 29.625 -11.039062 29.625 -8.3125 C 29.625 -5.5 28.644531 -3.117188 26.6875 -1.171875 C 24.738281 0.773438 22.359375 1.75 19.546875 1.75 Z M 19.546875 1.75 "/></g></g></g><g fill="#8b00cb" fill-opacity="1"><g transform="translate(95.430928, 687.133371)"><g><path d="M 0.28125 0 L 0.28125 -0.359375 L 1.1875 -0.6875 C 1.664062 -0.875 2.035156 -1.101562 2.296875 -1.375 C 2.554688 -1.65625 2.769531 -2.046875 2.9375 -2.546875 L 10.328125 -23.75 L 13.375 -23.75 L 20.65625 -2.40625 C 20.851562 -1.875 21.070312 -1.472656 21.3125 -1.203125 C 21.550781 -0.929688 21.921875 -0.695312 22.421875 -0.5 L 22.859375 -0.359375 L 22.859375 0 L 13.734375 0 L 13.734375 -0.359375 L 14.28125 -0.53125 C 14.78125 -0.726562 15.082031 -1 15.1875 -1.34375 C 15.300781 -1.6875 15.285156 -2.097656 15.140625 -2.578125 L 13.453125 -7.75 L 5.484375 -7.75 L 3.765625 -2.6875 C 3.597656 -2.164062 3.539062 -1.75 3.59375 -1.4375 C 3.65625 -1.125 3.941406 -0.875 4.453125 -0.6875 L 5.234375 -0.359375 L 5.234375 0 Z M 5.734375 -8.46875 L 13.234375 -8.46875 L 9.609375 -19.625 Z M 5.734375 -8.46875 "/></g></g></g><g fill="#8b00cb" fill-opacity="1"><g transform="translate(118.753133, 687.133371)"><g/></g></g><g fill="#8b00cb" fill-opacity="1"><g transform="translate(126.575043, 687.133371)"><g><path d="M 0.796875 0 L 0.796875 -0.359375 L 1.546875 -0.640625 C 2.304688 -0.953125 2.6875 -1.5625 2.6875 -2.46875 L 2.6875 -21.203125 C 2.6875 -22.160156 2.304688 -22.769531 1.546875 -23.03125 L 0.796875 -23.3125 L 0.796875 -23.671875 L 10.265625 -23.671875 C 12.796875 -23.671875 14.972656 -23.195312 16.796875 -22.25 C 18.628906 -21.3125 20.039062 -19.960938 21.03125 -18.203125 C 22.03125 -16.441406 22.53125 -14.332031 22.53125 -11.875 C 22.53125 -9.363281 21.988281 -7.222656 20.90625 -5.453125 C 19.832031 -3.679688 18.332031 -2.328125 16.40625 -1.390625 C 14.488281 -0.460938 12.222656 0 9.609375 0 Z M 8.078125 -0.71875 L 9.609375 -0.71875 C 11.335938 -0.71875 12.726562 -1.054688 13.78125 -1.734375 C 14.832031 -2.421875 15.601562 -3.570312 16.09375 -5.1875 C 16.582031 -6.800781 16.828125 -9.019531 16.828125 -11.84375 C 16.828125 -14.664062 16.582031 -16.882812 16.09375 -18.5 C 15.601562 -20.113281 14.84375 -21.257812 13.8125 -21.9375 C 12.78125 -22.613281 11.429688 -22.953125 9.765625 -22.953125 L 8.078125 -22.953125 Z M 8.078125 -0.71875 "/></g></g></g><g fill="#8b00cb" fill-opacity="1"><g transform="translate(149.825492, 687.133371)"><g><path d="M 0.28125 0 L 0.28125 -0.359375 L 1.1875 -0.6875 C 1.664062 -0.875 2.035156 -1.101562 2.296875 -1.375 C 2.554688 -1.65625 2.769531 -2.046875 2.9375 -2.546875 L 10.328125 -23.75 L 13.375 -23.75 L 20.65625 -2.40625 C 20.851562 -1.875 21.070312 -1.472656 21.3125 -1.203125 C 21.550781 -0.929688 21.921875 -0.695312 22.421875 -0.5 L 22.859375 -0.359375 L 22.859375 0 L 13.734375 0 L 13.734375 -0.359375 L 14.28125 -0.53125 C 14.78125 -0.726562 15.082031 -1 15.1875 -1.34375 C 15.300781 -1.6875 15.285156 -2.097656 15.140625 -2.578125 L 13.453125 -7.75 L 5.484375 -7.75 L 3.765625 -2.6875 C 3.597656 -2.164062 3.539062 -1.75 3.59375 -1.4375 C 3.65625 -1.125 3.941406 -0.875 4.453125 -0.6875 L 5.234375 -0.359375 L 5.234375 0 Z M 5.734375 -8.46875 L 13.234375 -8.46875 L 9.609375 -19.625 Z M 5.734375 -8.46875 "/></g></g></g><g fill="#8b00cb" fill-opacity="1"><g transform="translate(173.147697, 687.133371)"><g><path d="M 5.59375 0 L 5.59375 -0.359375 L 7.0625 -0.71875 C 8.039062 -0.9375 8.53125 -1.535156 8.53125 -2.515625 L 8.53125 -22.953125 L 5.484375 -22.953125 C 4.597656 -22.953125 3.960938 -22.71875 3.578125 -22.25 C 3.203125 -21.789062 2.800781 -21.15625 2.375 -20.34375 L 1.078125 -17.828125 L 0.71875 -17.828125 L 0.890625 -23.671875 L 21.59375 -23.671875 L 21.734375 -17.828125 L 21.375 -17.828125 L 20.09375 -20.34375 C 19.6875 -21.15625 19.289062 -21.789062 18.90625 -22.25 C 18.519531 -22.71875 17.882812 -22.953125 17 -22.953125 L 13.953125 -22.953125 L 13.953125 -2.515625 C 13.953125 -1.535156 14.441406 -0.9375 15.421875 -0.71875 L 16.890625 -0.359375 L 16.890625 0 Z M 5.59375 0 "/></g></g></g><g fill="#8b00cb" fill-opacity="1"><g transform="translate(195.644659, 687.133371)"><g><path d="M 0.28125 0 L 0.28125 -0.359375 L 1.1875 -0.6875 C 1.664062 -0.875 2.035156 -1.101562 2.296875 -1.375 C 2.554688 -1.65625 2.769531 -2.046875 2.9375 -2.546875 L 10.328125 -23.75 L 13.375 -23.75 L 20.65625 -2.40625 C 20.851562 -1.875 21.070312 -1.472656 21.3125 -1.203125 C 21.550781 -0.929688 21.921875 -0.695312 22.421875 -0.5 L 22.859375 -0.359375 L 22.859375 0 L 13.734375 0 L 13.734375 -0.359375 L 14.28125 -0.53125 C 14.78125 -0.726562 15.082031 -1 15.1875 -1.34375 C 15.300781 -1.6875 15.285156 -2.097656 15.140625 -2.578125 L 13.453125 -7.75 L 5.484375 -7.75 L 3.765625 -2.6875 C 3.597656 -2.164062 3.539062 -1.75 3.59375 -1.4375 C 3.65625 -1.125 3.941406 -0.875 4.453125 -0.6875 L 5.234375 -0.359375 L 5.234375 0 Z M 5.734375 -8.46875 L 13.234375 -8.46875 L 9.609375 -19.625 Z M 5.734375 -8.46875 "/></g></g></g><g fill="#8b00cb" fill-opacity="1"><g transform="translate(218.966863, 687.133371)"><g><path d="M 1.4375 -8.609375 L 1.4375 -9.578125 L 10.46875 -9.578125 L 10.46875 -8.609375 Z M 1.4375 -8.609375 "/></g></g></g><g fill="#8b00cb" fill-opacity="1"><g transform="translate(230.879122, 687.133371)"><g><path d="M 0.796875 0 L 0.796875 -0.359375 L 1.4375 -0.609375 C 1.914062 -0.796875 2.242188 -1.035156 2.421875 -1.328125 C 2.597656 -1.617188 2.6875 -2 2.6875 -2.46875 L 2.6875 -21.203125 C 2.6875 -21.703125 2.597656 -22.09375 2.421875 -22.375 C 2.242188 -22.664062 1.914062 -22.894531 1.4375 -23.0625 L 0.796875 -23.3125 L 0.796875 -23.671875 L 11.078125 -23.671875 C 14.003906 -23.671875 16.113281 -23.140625 17.40625 -22.078125 C 18.695312 -21.015625 19.34375 -19.671875 19.34375 -18.046875 C 19.34375 -16.828125 18.867188 -15.71875 17.921875 -14.71875 C 16.972656 -13.726562 15.351562 -13.03125 13.0625 -12.625 C 15.6875 -12.34375 17.609375 -11.65625 18.828125 -10.5625 C 20.046875 -9.476562 20.65625 -8.15625 20.65625 -6.59375 C 20.65625 -5.832031 20.488281 -5.0625 20.15625 -4.28125 C 19.820312 -3.507812 19.253906 -2.800781 18.453125 -2.15625 C 17.648438 -1.507812 16.554688 -0.988281 15.171875 -0.59375 C 13.785156 -0.195312 12.03125 0 9.90625 0 Z M 8 -12.65625 L 9.546875 -12.65625 C 11.148438 -12.65625 12.300781 -13.023438 13 -13.765625 C 13.707031 -14.515625 14.0625 -15.8125 14.0625 -17.65625 C 14.0625 -19.5625 13.738281 -20.921875 13.09375 -21.734375 C 12.445312 -22.546875 11.394531 -22.953125 9.9375 -22.953125 L 8 -22.953125 Z M 8 -0.71875 L 9.796875 -0.71875 C 11.585938 -0.71875 12.921875 -1.195312 13.796875 -2.15625 C 14.671875 -3.113281 15.109375 -4.609375 15.109375 -6.640625 C 15.109375 -8.546875 14.6875 -9.90625 13.84375 -10.71875 C 13.007812 -11.539062 11.632812 -11.953125 9.71875 -11.953125 L 8 -11.953125 Z M 8 -0.71875 "/></g></g></g><g fill="#8b00cb" fill-opacity="1"><g transform="translate(252.335546, 687.133371)"><g><path d="M 0.28125 0 L 0.28125 -0.359375 L 1.1875 -0.6875 C 1.664062 -0.875 2.035156 -1.101562 2.296875 -1.375 C 2.554688 -1.65625 2.769531 -2.046875 2.9375 -2.546875 L 10.328125 -23.75 L 13.375 -23.75 L 20.65625 -2.40625 C 20.851562 -1.875 21.070312 -1.472656 21.3125 -1.203125 C 21.550781 -0.929688 21.921875 -0.695312 22.421875 -0.5 L 22.859375 -0.359375 L 22.859375 0 L 13.734375 0 L 13.734375 -0.359375 L 14.28125 -0.53125 C 14.78125 -0.726562 15.082031 -1 15.1875 -1.34375 C 15.300781 -1.6875 15.285156 -2.097656 15.140625 -2.578125 L 13.453125 -7.75 L 5.484375 -7.75 L 3.765625 -2.6875 C 3.597656 -2.164062 3.539062 -1.75 3.59375 -1.4375 C 3.65625 -1.125 3.941406 -0.875 4.453125 -0.6875 L 5.234375 -0.359375 L 5.234375 0 Z M 5.734375 -8.46875 L 13.234375 -8.46875 L 9.609375 -19.625 Z M 5.734375 -8.46875 "/></g></g></g><g fill="#8b00cb" fill-opacity="1"><g transform="translate(275.657751, 687.133371)"><g><path d="M 8.5 0.640625 C 7.1875 0.640625 5.847656 0.476562 4.484375 0.15625 C 3.117188 -0.164062 1.984375 -0.585938 1.078125 -1.109375 L 1.25 -5.984375 L 1.609375 -5.984375 L 2.71875 -3.65625 C 3.0625 -2.988281 3.421875 -2.394531 3.796875 -1.875 C 4.179688 -1.363281 4.707031 -0.96875 5.375 -0.6875 C 5.851562 -0.445312 6.3125 -0.285156 6.75 -0.203125 C 7.195312 -0.117188 7.695312 -0.078125 8.25 -0.078125 C 9.707031 -0.078125 10.859375 -0.46875 11.703125 -1.25 C 12.554688 -2.039062 12.984375 -3.0625 12.984375 -4.3125 C 12.984375 -5.476562 12.695312 -6.390625 12.125 -7.046875 C 11.550781 -7.703125 10.628906 -8.34375 9.359375 -8.96875 L 7.890625 -9.609375 C 5.835938 -10.523438 4.226562 -11.570312 3.0625 -12.75 C 1.90625 -13.9375 1.328125 -15.507812 1.328125 -17.46875 C 1.328125 -18.882812 1.691406 -20.101562 2.421875 -21.125 C 3.148438 -22.15625 4.164062 -22.945312 5.46875 -23.5 C 6.769531 -24.050781 8.296875 -24.328125 10.046875 -24.328125 C 11.316406 -24.328125 12.519531 -24.15625 13.65625 -23.8125 C 14.789062 -23.476562 15.773438 -23.023438 16.609375 -22.453125 L 16.390625 -18.15625 L 16.03125 -18.15625 L 14.5625 -20.84375 C 14.15625 -21.675781 13.75 -22.265625 13.34375 -22.609375 C 12.9375 -22.960938 12.472656 -23.210938 11.953125 -23.359375 C 11.640625 -23.453125 11.347656 -23.515625 11.078125 -23.546875 C 10.816406 -23.585938 10.484375 -23.609375 10.078125 -23.609375 C 8.859375 -23.609375 7.828125 -23.253906 6.984375 -22.546875 C 6.148438 -21.835938 5.734375 -20.890625 5.734375 -19.703125 C 5.734375 -18.472656 6.054688 -17.492188 6.703125 -16.765625 C 7.347656 -16.035156 8.296875 -15.382812 9.546875 -14.8125 L 11.1875 -14.09375 C 13.488281 -13.09375 15.140625 -12.023438 16.140625 -10.890625 C 17.148438 -9.753906 17.65625 -8.289062 17.65625 -6.5 C 17.65625 -4.394531 16.859375 -2.675781 15.265625 -1.34375 C 13.671875 -0.0195312 11.414062 0.640625 8.5 0.640625 Z M 8.5 0.640625 "/></g></g></g><g fill="#8b00cb" fill-opacity="1"><g transform="translate(294.351398, 687.133371)"><g><path d="M 0.796875 0 L 0.796875 -0.359375 L 1.609375 -0.6875 C 2.015625 -0.851562 2.296875 -1.070312 2.453125 -1.34375 C 2.609375 -1.625 2.6875 -2 2.6875 -2.46875 L 2.6875 -21.203125 C 2.6875 -21.679688 2.617188 -22.054688 2.484375 -22.328125 C 2.359375 -22.609375 2.066406 -22.832031 1.609375 -23 L 0.796875 -23.3125 L 0.796875 -23.671875 L 17.96875 -23.671875 L 18.1875 -18.15625 L 17.828125 -18.15625 L 16.28125 -21.53125 C 16.070312 -21.957031 15.847656 -22.300781 15.609375 -22.5625 C 15.367188 -22.820312 15.007812 -22.953125 14.53125 -22.953125 L 8.078125 -22.953125 L 8.078125 -12.59375 L 11.90625 -12.59375 C 12.382812 -12.59375 12.75 -12.71875 13 -12.96875 C 13.25 -13.21875 13.472656 -13.554688 13.671875 -13.984375 L 14.390625 -15.421875 L 14.75 -15.421875 L 14.75 -8.96875 L 14.390625 -8.96875 L 13.671875 -10.46875 C 13.453125 -10.90625 13.222656 -11.25 12.984375 -11.5 C 12.742188 -11.75 12.382812 -11.875 11.90625 -11.875 L 8.078125 -11.875 L 8.078125 -0.71875 L 15.3125 -0.71875 C 15.789062 -0.71875 16.160156 -0.84375 16.421875 -1.09375 C 16.691406 -1.34375 16.910156 -1.695312 17.078125 -2.15625 L 18.546875 -5.53125 L 18.90625 -5.53125 L 18.6875 0 Z M 0.796875 0 "/></g></g></g><g fill="#8b00cb" fill-opacity="1"><g transform="translate(314.264969, 687.133371)"><g><path d="M 0.796875 0 L 0.796875 -0.359375 L 1.546875 -0.640625 C 2.304688 -0.953125 2.6875 -1.5625 2.6875 -2.46875 L 2.6875 -21.203125 C 2.6875 -22.160156 2.304688 -22.769531 1.546875 -23.03125 L 0.796875 -23.3125 L 0.796875 -23.671875 L 10.265625 -23.671875 C 12.796875 -23.671875 14.972656 -23.195312 16.796875 -22.25 C 18.628906 -21.3125 20.039062 -19.960938 21.03125 -18.203125 C 22.03125 -16.441406 22.53125 -14.332031 22.53125 -11.875 C 22.53125 -9.363281 21.988281 -7.222656 20.90625 -5.453125 C 19.832031 -3.679688 18.332031 -2.328125 16.40625 -1.390625 C 14.488281 -0.460938 12.222656 0 9.609375 0 Z M 8.078125 -0.71875 L 9.609375 -0.71875 C 11.335938 -0.71875 12.726562 -1.054688 13.78125 -1.734375 C 14.832031 -2.421875 15.601562 -3.570312 16.09375 -5.1875 C 16.582031 -6.800781 16.828125 -9.019531 16.828125 -11.84375 C 16.828125 -14.664062 16.582031 -16.882812 16.09375 -18.5 C 15.601562 -20.113281 14.84375 -21.257812 13.8125 -21.9375 C 12.78125 -22.613281 11.429688 -22.953125 9.765625 -22.953125 L 8.078125 -22.953125 Z M 8.078125 -0.71875 "/></g></g></g><g fill="#8b00cb" fill-opacity="1"><g transform="translate(337.515418, 687.133371)"><g/></g></g><g fill="#8b00cb" fill-opacity="1"><g transform="translate(345.337328, 687.133371)"><g><path d="M 0.28125 0 L 0.28125 -0.359375 L 1.1875 -0.6875 C 1.664062 -0.875 2.035156 -1.101562 2.296875 -1.375 C 2.554688 -1.65625 2.769531 -2.046875 2.9375 -2.546875 L 10.328125 -23.75 L 13.375 -23.75 L 20.65625 -2.40625 C 20.851562 -1.875 21.070312 -1.472656 21.3125 -1.203125 C 21.550781 -0.929688 21.921875 -0.695312 22.421875 -0.5 L 22.859375 -0.359375 L 22.859375 0 L 13.734375 0 L 13.734375 -0.359375 L 14.28125 -0.53125 C 14.78125 -0.726562 15.082031 -1 15.1875 -1.34375 C 15.300781 -1.6875 15.285156 -2.097656 15.140625 -2.578125 L 13.453125 -7.75 L 5.484375 -7.75 L 3.765625 -2.6875 C 3.597656 -2.164062 3.539062 -1.75 3.59375 -1.4375 C 3.65625 -1.125 3.941406 -0.875 4.453125 -0.6875 L 5.234375 -0.359375 L 5.234375 0 Z M 5.734375 -8.46875 L 13.234375 -8.46875 L 9.609375 -19.625 Z M 5.734375 -8.46875 "/></g></g></g><g fill="#8b00cb" fill-opacity="1"><g transform="translate(368.659532, 687.133371)"><g><path d="M 0.796875 0 L 0.796875 -0.359375 L 1.5 -0.609375 C 1.976562 -0.753906 2.296875 -0.96875 2.453125 -1.25 C 2.609375 -1.539062 2.6875 -1.925781 2.6875 -2.40625 L 2.6875 -21.203125 C 2.6875 -21.679688 2.601562 -22.0625 2.4375 -22.34375 C 2.269531 -22.632812 1.945312 -22.863281 1.46875 -23.03125 L 0.796875 -23.3125 L 0.796875 -23.671875 L 9.5 -23.671875 C 13.070312 -23.671875 15.648438 -23.019531 17.234375 -21.71875 C 18.828125 -20.414062 19.625 -18.703125 19.625 -16.578125 C 19.625 -15.210938 19.296875 -13.960938 18.640625 -12.828125 C 17.984375 -11.691406 16.898438 -10.785156 15.390625 -10.109375 C 13.878906 -9.441406 11.847656 -9.109375 9.296875 -9.109375 L 8.078125 -9.109375 L 8.078125 -2.515625 C 8.078125 -1.578125 8.539062 -0.96875 9.46875 -0.6875 L 10.546875 -0.359375 L 10.546875 0 Z M 8.078125 -9.828125 L 9.4375 -9.828125 C 10.601562 -9.828125 11.554688 -10.019531 12.296875 -10.40625 C 13.046875 -10.789062 13.597656 -11.457031 13.953125 -12.40625 C 14.316406 -13.363281 14.5 -14.691406 14.5 -16.390625 C 14.5 -18.117188 14.300781 -19.457031 13.90625 -20.40625 C 13.507812 -21.363281 12.925781 -22.023438 12.15625 -22.390625 C 11.394531 -22.765625 10.441406 -22.953125 9.296875 -22.953125 L 8.078125 -22.953125 Z M 8.078125 -9.828125 "/></g></g></g><g fill="#8b00cb" fill-opacity="1"><g transform="translate(388.931909, 687.133371)"><g><path d="M 0.796875 0 L 0.796875 -0.359375 L 1.5 -0.609375 C 1.976562 -0.753906 2.296875 -0.96875 2.453125 -1.25 C 2.609375 -1.539062 2.6875 -1.925781 2.6875 -2.40625 L 2.6875 -21.203125 C 2.6875 -21.679688 2.601562 -22.0625 2.4375 -22.34375 C 2.269531 -22.632812 1.945312 -22.863281 1.46875 -23.03125 L 0.796875 -23.3125 L 0.796875 -23.671875 L 9.5 -23.671875 C 13.070312 -23.671875 15.648438 -23.019531 17.234375 -21.71875 C 18.828125 -20.414062 19.625 -18.703125 19.625 -16.578125 C 19.625 -15.210938 19.296875 -13.960938 18.640625 -12.828125 C 17.984375 -11.691406 16.898438 -10.785156 15.390625 -10.109375 C 13.878906 -9.441406 11.847656 -9.109375 9.296875 -9.109375 L 8.078125 -9.109375 L 8.078125 -2.515625 C 8.078125 -1.578125 8.539062 -0.96875 9.46875 -0.6875 L 10.546875 -0.359375 L 10.546875 0 Z M 8.078125 -9.828125 L 9.4375 -9.828125 C 10.601562 -9.828125 11.554688 -10.019531 12.296875 -10.40625 C 13.046875 -10.789062 13.597656 -11.457031 13.953125 -12.40625 C 14.316406 -13.363281 14.5 -14.691406 14.5 -16.390625 C 14.5 -18.117188 14.300781 -19.457031 13.90625 -20.40625 C 13.507812 -21.363281 12.925781 -22.023438 12.15625 -22.390625 C 11.394531 -22.765625 10.441406 -22.953125 9.296875 -22.953125 L 8.078125 -22.953125 Z M 8.078125 -9.828125 "/></g></g></g><g fill="#8b00cb" fill-opacity="1"><g transform="translate(409.204286, 687.133371)"><g><path d="M 0.796875 0 L 0.796875 -0.359375 L 1.546875 -0.609375 C 2.023438 -0.773438 2.332031 -0.992188 2.46875 -1.265625 C 2.613281 -1.546875 2.6875 -1.9375 2.6875 -2.4375 L 2.6875 -21.203125 C 2.6875 -21.679688 2.617188 -22.054688 2.484375 -22.328125 C 2.359375 -22.609375 2.066406 -22.832031 1.609375 -23 L 0.796875 -23.3125 L 0.796875 -23.671875 L 11.046875 -23.671875 C 13.867188 -23.671875 16.03125 -23.140625 17.53125 -22.078125 C 19.039062 -21.015625 19.796875 -19.539062 19.796875 -17.65625 C 19.796875 -16.601562 19.398438 -15.550781 18.609375 -14.5 C 17.828125 -13.445312 16.585938 -12.628906 14.890625 -12.046875 L 19.875 -2.15625 C 20.09375 -1.75 20.335938 -1.421875 20.609375 -1.171875 C 20.878906 -0.921875 21.242188 -0.695312 21.703125 -0.5 L 22.171875 -0.328125 L 22.171875 0 L 15.75 0 L 10.4375 -11.296875 L 8 -11.296875 L 8 -2.4375 C 8 -1.988281 8.070312 -1.617188 8.21875 -1.328125 C 8.363281 -1.035156 8.660156 -0.820312 9.109375 -0.6875 L 9.96875 -0.359375 L 9.96875 0 Z M 8 -12.015625 L 9.71875 -12.015625 C 11.445312 -12.015625 12.691406 -12.472656 13.453125 -13.390625 C 14.210938 -14.316406 14.59375 -15.6875 14.59375 -17.5 C 14.59375 -19.34375 14.234375 -20.710938 13.515625 -21.609375 C 12.804688 -22.503906 11.601562 -22.953125 9.90625 -22.953125 L 8 -22.953125 Z M 8 -12.015625 "/></g></g></g><g fill="#8b00cb" fill-opacity="1"><g transform="translate(431.737125, 687.133371)"><g><path d="M 12.015625 0.640625 C 10.554688 0.640625 9.148438 0.378906 7.796875 -0.140625 C 6.453125 -0.671875 5.242188 -1.453125 4.171875 -2.484375 C 3.109375 -3.523438 2.265625 -4.820312 1.640625 -6.375 C 1.023438 -7.9375 0.71875 -9.757812 0.71875 -11.84375 C 0.71875 -13.894531 1.023438 -15.695312 1.640625 -17.25 C 2.265625 -18.8125 3.113281 -20.109375 4.1875 -21.140625 C 5.269531 -22.179688 6.484375 -22.972656 7.828125 -23.515625 C 9.179688 -24.054688 10.578125 -24.328125 12.015625 -24.328125 C 13.472656 -24.328125 14.878906 -24.066406 16.234375 -23.546875 C 17.585938 -23.035156 18.796875 -22.257812 19.859375 -21.21875 C 20.921875 -20.175781 21.757812 -18.867188 22.375 -17.296875 C 23 -15.734375 23.3125 -13.914062 23.3125 -11.84375 C 23.3125 -9.8125 23 -8.007812 22.375 -6.4375 C 21.757812 -4.875 20.921875 -3.570312 19.859375 -2.53125 C 18.796875 -1.488281 17.585938 -0.695312 16.234375 -0.15625 C 14.878906 0.375 13.472656 0.640625 12.015625 0.640625 Z M 12.015625 -0.109375 C 13.328125 -0.109375 14.390625 -0.457031 15.203125 -1.15625 C 16.023438 -1.863281 16.617188 -3.070312 16.984375 -4.78125 C 17.359375 -6.5 17.546875 -8.851562 17.546875 -11.84375 C 17.546875 -14.851562 17.359375 -17.210938 16.984375 -18.921875 C 16.617188 -20.628906 16.023438 -21.835938 15.203125 -22.546875 C 14.390625 -23.253906 13.328125 -23.609375 12.015625 -23.609375 C 10.722656 -23.609375 9.671875 -23.253906 8.859375 -22.546875 C 8.046875 -21.835938 7.453125 -20.628906 7.078125 -18.921875 C 6.710938 -17.210938 6.53125 -14.851562 6.53125 -11.84375 C 6.53125 -8.851562 6.710938 -6.5 7.078125 -4.78125 C 7.453125 -3.070312 8.046875 -1.863281 8.859375 -1.15625 C 9.671875 -0.457031 10.722656 -0.109375 12.015625 -0.109375 Z M 12.015625 -0.109375 "/></g></g></g><g fill="#8b00cb" fill-opacity="1"><g transform="translate(455.776939, 687.133371)"><g><path d="M 0.28125 0 L 0.28125 -0.359375 L 1.1875 -0.6875 C 1.664062 -0.875 2.035156 -1.101562 2.296875 -1.375 C 2.554688 -1.65625 2.769531 -2.046875 2.9375 -2.546875 L 10.328125 -23.75 L 13.375 -23.75 L 20.65625 -2.40625 C 20.851562 -1.875 21.070312 -1.472656 21.3125 -1.203125 C 21.550781 -0.929688 21.921875 -0.695312 22.421875 -0.5 L 22.859375 -0.359375 L 22.859375 0 L 13.734375 0 L 13.734375 -0.359375 L 14.28125 -0.53125 C 14.78125 -0.726562 15.082031 -1 15.1875 -1.34375 C 15.300781 -1.6875 15.285156 -2.097656 15.140625 -2.578125 L 13.453125 -7.75 L 5.484375 -7.75 L 3.765625 -2.6875 C 3.597656 -2.164062 3.539062 -1.75 3.59375 -1.4375 C 3.65625 -1.125 3.941406 -0.875 4.453125 -0.6875 L 5.234375 -0.359375 L 5.234375 0 Z M 5.734375 -8.46875 L 13.234375 -8.46875 L 9.609375 -19.625 Z M 5.734375 -8.46875 "/></g></g></g><g fill="#8b00cb" fill-opacity="1"><g transform="translate(479.099143, 687.133371)"><g><path d="M 13.125 0.640625 C 10.8125 0.640625 8.710938 0.171875 6.828125 -0.765625 C 4.953125 -1.710938 3.460938 -3.117188 2.359375 -4.984375 C 1.265625 -6.847656 0.71875 -9.132812 0.71875 -11.84375 C 0.71875 -13.894531 1.050781 -15.695312 1.71875 -17.25 C 2.382812 -18.8125 3.296875 -20.117188 4.453125 -21.171875 C 5.617188 -22.222656 6.960938 -23.007812 8.484375 -23.53125 C 10.003906 -24.0625 11.613281 -24.328125 13.3125 -24.328125 C 14.675781 -24.328125 15.929688 -24.171875 17.078125 -23.859375 C 18.222656 -23.546875 19.300781 -23.113281 20.3125 -22.5625 L 20.453125 -18.15625 L 20.09375 -18.15625 L 18.296875 -21.015625 C 18.054688 -21.472656 17.789062 -21.882812 17.5 -22.25 C 17.21875 -22.625 16.863281 -22.910156 16.4375 -23.109375 C 16.070312 -23.273438 15.71875 -23.398438 15.375 -23.484375 C 15.03125 -23.566406 14.59375 -23.609375 14.0625 -23.609375 C 12.675781 -23.609375 11.414062 -23.234375 10.28125 -22.484375 C 9.144531 -21.742188 8.234375 -20.519531 7.546875 -18.8125 C 6.867188 -17.101562 6.53125 -14.765625 6.53125 -11.796875 C 6.53125 -8.859375 6.851562 -6.535156 7.5 -4.828125 C 8.144531 -3.117188 9.019531 -1.898438 10.125 -1.171875 C 11.238281 -0.441406 12.492188 -0.078125 13.890625 -0.078125 C 14.648438 -0.078125 15.253906 -0.128906 15.703125 -0.234375 C 16.160156 -0.335938 16.617188 -0.5 17.078125 -0.71875 C 17.535156 -0.90625 17.878906 -1.179688 18.109375 -1.546875 C 18.347656 -1.921875 18.566406 -2.328125 18.765625 -2.765625 L 20.34375 -6.28125 L 20.703125 -6.28125 L 20.59375 -1.140625 C 19.582031 -0.617188 18.457031 -0.191406 17.21875 0.140625 C 15.976562 0.472656 14.613281 0.640625 13.125 0.640625 Z M 13.125 0.640625 "/></g></g></g><g fill="#8b00cb" fill-opacity="1"><g transform="translate(500.734953, 687.133371)"><g><path d="M 0.796875 0 L 0.796875 -0.359375 L 1.5 -0.640625 C 1.976562 -0.804688 2.296875 -1.035156 2.453125 -1.328125 C 2.609375 -1.617188 2.6875 -1.988281 2.6875 -2.4375 L 2.6875 -21.203125 C 2.6875 -21.679688 2.609375 -22.0625 2.453125 -22.34375 C 2.296875 -22.632812 1.976562 -22.863281 1.5 -23.03125 L 0.796875 -23.3125 L 0.796875 -23.671875 L 9.90625 -23.671875 L 9.90625 -23.3125 L 9.296875 -23.0625 C 8.835938 -22.894531 8.523438 -22.671875 8.359375 -22.390625 C 8.191406 -22.117188 8.109375 -21.75 8.109375 -21.28125 L 8.109375 -12.5625 L 16.6875 -12.5625 L 16.6875 -21.28125 C 16.6875 -21.75 16.609375 -22.117188 16.453125 -22.390625 C 16.296875 -22.671875 15.976562 -22.894531 15.5 -23.0625 L 14.859375 -23.3125 L 14.859375 -23.671875 L 24 -23.671875 L 24 -23.3125 L 23.28125 -23.03125 C 22.820312 -22.863281 22.507812 -22.632812 22.34375 -22.34375 C 22.175781 -22.0625 22.09375 -21.679688 22.09375 -21.203125 L 22.09375 -2.4375 C 22.09375 -1.988281 22.175781 -1.617188 22.34375 -1.328125 C 22.507812 -1.035156 22.820312 -0.804688 23.28125 -0.640625 L 24 -0.359375 L 24 0 L 14.859375 0 L 14.859375 -0.359375 L 15.5 -0.578125 C 15.976562 -0.765625 16.296875 -0.992188 16.453125 -1.265625 C 16.609375 -1.546875 16.6875 -1.925781 16.6875 -2.40625 L 16.6875 -11.84375 L 8.109375 -11.84375 L 8.109375 -2.40625 C 8.109375 -1.519531 8.503906 -0.910156 9.296875 -0.578125 L 9.90625 -0.359375 L 9.90625 0 Z M 0.796875 0 "/></g></g></g><g fill="#8b00cb" fill-opacity="1"><g transform="translate(525.528256, 687.133371)"><g/></g></g><g fill="#8b00cb" fill-opacity="1"><g transform="translate(533.350182, 687.133371)"><g><path d="M 5.59375 0 L 5.59375 -0.359375 L 7.0625 -0.71875 C 8.039062 -0.9375 8.53125 -1.535156 8.53125 -2.515625 L 8.53125 -22.953125 L 5.484375 -22.953125 C 4.597656 -22.953125 3.960938 -22.71875 3.578125 -22.25 C 3.203125 -21.789062 2.800781 -21.15625 2.375 -20.34375 L 1.078125 -17.828125 L 0.71875 -17.828125 L 0.890625 -23.671875 L 21.59375 -23.671875 L 21.734375 -17.828125 L 21.375 -17.828125 L 20.09375 -20.34375 C 19.6875 -21.15625 19.289062 -21.789062 18.90625 -22.25 C 18.519531 -22.71875 17.882812 -22.953125 17 -22.953125 L 13.953125 -22.953125 L 13.953125 -2.515625 C 13.953125 -1.535156 14.441406 -0.9375 15.421875 -0.71875 L 16.890625 -0.359375 L 16.890625 0 Z M 5.59375 0 "/></g></g></g><g fill="#8b00cb" fill-opacity="1"><g transform="translate(555.847144, 687.133371)"><g><path d="M 12.015625 0.640625 C 10.554688 0.640625 9.148438 0.378906 7.796875 -0.140625 C 6.453125 -0.671875 5.242188 -1.453125 4.171875 -2.484375 C 3.109375 -3.523438 2.265625 -4.820312 1.640625 -6.375 C 1.023438 -7.9375 0.71875 -9.757812 0.71875 -11.84375 C 0.71875 -13.894531 1.023438 -15.695312 1.640625 -17.25 C 2.265625 -18.8125 3.113281 -20.109375 4.1875 -21.140625 C 5.269531 -22.179688 6.484375 -22.972656 7.828125 -23.515625 C 9.179688 -24.054688 10.578125 -24.328125 12.015625 -24.328125 C 13.472656 -24.328125 14.878906 -24.066406 16.234375 -23.546875 C 17.585938 -23.035156 18.796875 -22.257812 19.859375 -21.21875 C 20.921875 -20.175781 21.757812 -18.867188 22.375 -17.296875 C 23 -15.734375 23.3125 -13.914062 23.3125 -11.84375 C 23.3125 -9.8125 23 -8.007812 22.375 -6.4375 C 21.757812 -4.875 20.921875 -3.570312 19.859375 -2.53125 C 18.796875 -1.488281 17.585938 -0.695312 16.234375 -0.15625 C 14.878906 0.375 13.472656 0.640625 12.015625 0.640625 Z M 12.015625 -0.109375 C 13.328125 -0.109375 14.390625 -0.457031 15.203125 -1.15625 C 16.023438 -1.863281 16.617188 -3.070312 16.984375 -4.78125 C 17.359375 -6.5 17.546875 -8.851562 17.546875 -11.84375 C 17.546875 -14.851562 17.359375 -17.210938 16.984375 -18.921875 C 16.617188 -20.628906 16.023438 -21.835938 15.203125 -22.546875 C 14.390625 -23.253906 13.328125 -23.609375 12.015625 -23.609375 C 10.722656 -23.609375 9.671875 -23.253906 8.859375 -22.546875 C 8.046875 -21.835938 7.453125 -20.628906 7.078125 -18.921875 C 6.710938 -17.210938 6.53125 -14.851562 6.53125 -11.84375 C 6.53125 -8.851562 6.710938 -6.5 7.078125 -4.78125 C 7.453125 -3.070312 8.046875 -1.863281 8.859375 -1.15625 C 9.671875 -0.457031 10.722656 -0.109375 12.015625 -0.109375 Z M 12.015625 -0.109375 "/></g></g></g><g fill="#8b00cb" fill-opacity="1"><g transform="translate(579.886958, 687.133371)"><g/></g></g><g fill="#8b00cb" fill-opacity="1"><g transform="translate(587.708851, 687.133371)"><g><path d="M 0.796875 0 L 0.796875 -0.359375 L 1.546875 -0.640625 C 2.304688 -0.953125 2.6875 -1.5625 2.6875 -2.46875 L 2.6875 -21.203125 C 2.6875 -22.160156 2.304688 -22.769531 1.546875 -23.03125 L 0.796875 -23.3125 L 0.796875 -23.671875 L 10.265625 -23.671875 C 12.796875 -23.671875 14.972656 -23.195312 16.796875 -22.25 C 18.628906 -21.3125 20.039062 -19.960938 21.03125 -18.203125 C 22.03125 -16.441406 22.53125 -14.332031 22.53125 -11.875 C 22.53125 -9.363281 21.988281 -7.222656 20.90625 -5.453125 C 19.832031 -3.679688 18.332031 -2.328125 16.40625 -1.390625 C 14.488281 -0.460938 12.222656 0 9.609375 0 Z M 8.078125 -0.71875 L 9.609375 -0.71875 C 11.335938 -0.71875 12.726562 -1.054688 13.78125 -1.734375 C 14.832031 -2.421875 15.601562 -3.570312 16.09375 -5.1875 C 16.582031 -6.800781 16.828125 -9.019531 16.828125 -11.84375 C 16.828125 -14.664062 16.582031 -16.882812 16.09375 -18.5 C 15.601562 -20.113281 14.84375 -21.257812 13.8125 -21.9375 C 12.78125 -22.613281 11.429688 -22.953125 9.765625 -22.953125 L 8.078125 -22.953125 Z M 8.078125 -0.71875 "/></g></g></g><g fill="#8b00cb" fill-opacity="1"><g transform="translate(610.9593, 687.133371)"><g><path d="M 0.28125 0 L 0.28125 -0.359375 L 1.1875 -0.6875 C 1.664062 -0.875 2.035156 -1.101562 2.296875 -1.375 C 2.554688 -1.65625 2.769531 -2.046875 2.9375 -2.546875 L 10.328125 -23.75 L 13.375 -23.75 L 20.65625 -2.40625 C 20.851562 -1.875 21.070312 -1.472656 21.3125 -1.203125 C 21.550781 -0.929688 21.921875 -0.695312 22.421875 -0.5 L 22.859375 -0.359375 L 22.859375 0 L 13.734375 0 L 13.734375 -0.359375 L 14.28125 -0.53125 C 14.78125 -0.726562 15.082031 -1 15.1875 -1.34375 C 15.300781 -1.6875 15.285156 -2.097656 15.140625 -2.578125 L 13.453125 -7.75 L 5.484375 -7.75 L 3.765625 -2.6875 C 3.597656 -2.164062 3.539062 -1.75 3.59375 -1.4375 C 3.65625 -1.125 3.941406 -0.875 4.453125 -0.6875 L 5.234375 -0.359375 L 5.234375 0 Z M 5.734375 -8.46875 L 13.234375 -8.46875 L 9.609375 -19.625 Z M 5.734375 -8.46875 "/></g></g></g><g fill="#8b00cb" fill-opacity="1"><g transform="translate(634.281505, 687.133371)"><g><path d="M 5.59375 0 L 5.59375 -0.359375 L 7.0625 -0.71875 C 8.039062 -0.9375 8.53125 -1.535156 8.53125 -2.515625 L 8.53125 -22.953125 L 5.484375 -22.953125 C 4.597656 -22.953125 3.960938 -22.71875 3.578125 -22.25 C 3.203125 -21.789062 2.800781 -21.15625 2.375 -20.34375 L 1.078125 -17.828125 L 0.71875 -17.828125 L 0.890625 -23.671875 L 21.59375 -23.671875 L 21.734375 -17.828125 L 21.375 -17.828125 L 20.09375 -20.34375 C 19.6875 -21.15625 19.289062 -21.789062 18.90625 -22.25 C 18.519531 -22.71875 17.882812 -22.953125 17 -22.953125 L 13.953125 -22.953125 L 13.953125 -2.515625 C 13.953125 -1.535156 14.441406 -0.9375 15.421875 -0.71875 L 16.890625 -0.359375 L 16.890625 0 Z M 5.59375 0 "/></g></g></g><g fill="#8b00cb" fill-opacity="1"><g transform="translate(656.778434, 687.133371)"><g><path d="M 0.796875 0 L 0.796875 -0.359375 L 1.5 -0.640625 C 1.976562 -0.804688 2.296875 -1.035156 2.453125 -1.328125 C 2.609375 -1.617188 2.6875 -2 2.6875 -2.46875 L 2.6875 -21.203125 C 2.6875 -21.679688 2.613281 -22.0625 2.46875 -22.34375 C 2.332031 -22.632812 2.007812 -22.863281 1.5 -23.03125 L 0.796875 -23.3125 L 0.796875 -23.671875 L 10.015625 -23.671875 L 10.015625 -23.3125 L 9.296875 -23.03125 C 8.816406 -22.863281 8.5 -22.632812 8.34375 -22.34375 C 8.1875 -22.0625 8.109375 -21.679688 8.109375 -21.203125 L 8.109375 -2.46875 C 8.109375 -2 8.1875 -1.625 8.34375 -1.34375 C 8.5 -1.070312 8.816406 -0.835938 9.296875 -0.640625 L 10.015625 -0.359375 L 10.015625 0 Z M 0.796875 0 "/></g></g></g><g fill="#8b00cb" fill-opacity="1"><g transform="translate(667.5784, 687.133371)"><g><path d="M 1.25 0 L 1.25 -0.359375 L 2.4375 -0.71875 C 2.863281 -0.832031 3.171875 -1.0625 3.359375 -1.40625 C 3.554688 -1.757812 3.65625 -2.175781 3.65625 -2.65625 L 3.65625 -19.90625 C 3.394531 -20.476562 3.1875 -20.90625 3.03125 -21.1875 C 2.875 -21.476562 2.695312 -21.726562 2.5 -21.9375 C 2.3125 -22.144531 2.050781 -22.398438 1.71875 -22.703125 L 1.109375 -23.3125 L 1.109375 -23.671875 L 7.46875 -23.671875 L 19.375 -7.421875 L 19.375 -20.953125 C 19.375 -21.429688 19.296875 -21.859375 19.140625 -22.234375 C 18.984375 -22.617188 18.664062 -22.875 18.1875 -23 L 17 -23.3125 L 17 -23.671875 L 22.140625 -23.671875 L 22.140625 -23.3125 L 21.171875 -23 C 20.734375 -22.851562 20.46875 -22.597656 20.375 -22.234375 C 20.28125 -21.878906 20.234375 -21.460938 20.234375 -20.984375 L 20.234375 0.109375 L 18.21875 0.109375 L 4.515625 -18.734375 L 4.515625 -2.65625 C 4.515625 -2.175781 4.585938 -1.769531 4.734375 -1.4375 C 4.878906 -1.101562 5.175781 -0.863281 5.625 -0.71875 L 6.703125 -0.359375 L 6.703125 0 Z M 1.25 0 "/></g></g></g><g fill="#8b00cb" fill-opacity="1"><g transform="translate(691.008203, 687.133371)"><g><path d="M 13.0625 0.640625 C 10.625 0.640625 8.476562 0.132812 6.625 -0.875 C 4.769531 -1.894531 3.320312 -3.34375 2.28125 -5.21875 C 1.238281 -7.09375 0.71875 -9.3125 0.71875 -11.875 C 0.71875 -14.363281 1.226562 -16.539062 2.25 -18.40625 C 3.28125 -20.269531 4.769531 -21.722656 6.71875 -22.765625 C 8.675781 -23.804688 11.039062 -24.328125 13.8125 -24.328125 C 15.082031 -24.328125 16.257812 -24.179688 17.34375 -23.890625 C 18.4375 -23.609375 19.472656 -23.191406 20.453125 -22.640625 L 20.59375 -17.609375 L 20.234375 -17.609375 L 18.21875 -21.34375 C 17.914062 -21.945312 17.628906 -22.378906 17.359375 -22.640625 C 17.097656 -22.898438 16.765625 -23.101562 16.359375 -23.25 C 15.972656 -23.363281 15.617188 -23.453125 15.296875 -23.515625 C 14.972656 -23.578125 14.550781 -23.609375 14.03125 -23.609375 C 12.539062 -23.609375 11.226562 -23.210938 10.09375 -22.421875 C 8.957031 -21.628906 8.078125 -20.375 7.453125 -18.65625 C 6.835938 -16.9375 6.53125 -14.675781 6.53125 -11.875 C 6.53125 -9.101562 6.820312 -6.84375 7.40625 -5.09375 C 7.988281 -3.34375 8.816406 -2.066406 9.890625 -1.265625 C 10.972656 -0.472656 12.21875 -0.078125 13.625 -0.078125 C 13.84375 -0.078125 14.050781 -0.09375 14.25 -0.125 C 14.457031 -0.15625 14.660156 -0.195312 14.859375 -0.25 C 15.304688 -0.320312 15.601562 -0.515625 15.75 -0.828125 C 15.894531 -1.140625 15.96875 -1.507812 15.96875 -1.9375 L 15.96875 -9.046875 C 15.96875 -9.972656 15.488281 -10.546875 14.53125 -10.765625 L 12.875 -11.1875 L 12.875 -11.546875 L 23 -11.546875 L 23 -11.1875 L 22.5 -11.046875 C 21.582031 -10.765625 21.125 -10.164062 21.125 -9.25 L 21.125 -1.46875 C 19.882812 -0.78125 18.625 -0.257812 17.34375 0.09375 C 16.0625 0.457031 14.632812 0.640625 13.0625 0.640625 Z M 13.0625 0.640625 "/></g></g></g></svg>